<?xml version="1.0" encoding="utf-8"?>
<!DOCTYPE svg PUBLIC "-//W3C//DTD SVG 1.1//EN" "http://www.w3.org/Graphics/SVG/1.1/DTD/svg11.dtd">
<svg version="1.1" xmlns="http://www.w3.org/2000/svg" xmlns:xlink="http://www.w3.org/1999/xlink" x="0px" y="0px"
width="50px" height="43px" viewBox="0 0 50 43" enable-background="new 0 0 50 43" xml:space="preserve">
<path fill="#FFFFFF" d="M42.196,18.014c0.104,0.637,0.172,1.287,0.172,1.953s-0.067,1.315-0.171,1.953H50v-3.906H42.196z"/>
<path fill="#FFFFFF" d="M40.025,12.779l5.519-5.518l-2.762-2.762l-5.518,5.518C38.325,10.786,39.257,11.717,40.025,12.779z"/>
<path fill="#FFFFFF" d="M32.031,7.847V0.044h-3.906v7.802c0.638-0.102,1.287-0.17,1.952-0.17
C30.743,7.676,31.394,7.744,32.031,7.847z"/>
<path fill="#FFFFFF" d="M22.889,10.017L17.37,4.499l-2.761,2.762l5.518,5.518C20.896,11.717,21.828,10.786,22.889,10.017z"/>
<path fill="#FFFFFF" d="M37.265,29.917l5.518,5.517l2.762-2.761l-5.519-5.519C39.257,28.215,38.325,29.148,37.265,29.917z"/>
<path fill="#FFFFFF" d="M30.079,10.982c-3.328,0-6.233,1.823-7.786,4.52c1.134,0.562,2.184,1.269,3.123,2.106
c0.865-1.7,2.629-2.871,4.663-2.871c2.883,0,5.229,2.347,5.229,5.23c0,1.875-0.995,3.519-2.479,4.441
c1.016,0.785,1.896,1.71,2.606,2.752c2.197-1.64,3.627-4.248,3.627-7.193C39.062,15.013,35.032,10.982,30.079,10.982z"/>
<path fill="#FFFFFF" d="M26.554,24.999c-1.421-4.577-5.662-7.768-10.577-7.768c-3.296,0-6.241,1.213-8.291,3.417
c-1.736,1.867-2.711,4.35-2.815,7.111C1.83,29.069,0,31.781,0,35.136c0,4.344,3.553,7.878,7.921,7.878h17.3
c5.048,0,9.154-4.088,9.154-9.107C34.375,29.483,31.162,25.921,26.554,24.999z M25.221,39.12h-17.3
c-2.213,0-4.015-1.788-4.015-3.984c0-2.064,1.248-3.56,3.421-4.106l1.595-0.399l-0.124-1.635c-0.176-2.308,0.429-4.277,1.754-5.699
c1.301-1.401,3.229-2.173,5.425-2.173c3.5,0,6.471,2.503,7.066,5.951l0.257,1.494l1.52,0.116c3.379,0.255,5.648,2.354,5.648,5.222
C30.469,36.781,28.115,39.12,25.221,39.12z"/>
</svg>